<svg xmlns="http://www.w3.org/2000/svg" width="449.111" height="483.884" viewBox="0 0 449.111 483.884">
  <g id="FlippedCardIcon" transform="translate(36.74 -157.876)">
    <ellipse id="Ellipse_1" data-name="Ellipse 1" cx="147" cy="194.5" rx="147" ry="194.5" transform="translate(157.76 157.876) rotate(30)" fill="#f6f6f6"/>
    <g id="Icon">
      <g id="Group_23" data-name="Group 23" transform="translate(-14 4)">
        <path id="Path_11" data-name="Path 11" d="M.444,1.761A1.14,1.14,0,0,1,.1.392c.349-.882,1.625,0,1.625,0L2.44.716,5.1,1.761l3.455.852s1.624.022,1.412.947a.927.927,0,0,1-.986.826l-4.1-1.608L2.44,2.067Z" transform="translate(168.043 342.463) rotate(-47)" fill="#5477ed" stroke="#d2d1cf" stroke-width="0.5"/>
        <path id="Path_12" data-name="Path 12" d="M283.294-827.806a1.14,1.14,0,0,1-.346-1.369c.349-.882,1.625,0,1.625,0l.717.324,2.665,1.045,3.455.852s1.624.022,1.412.947a.927.927,0,0,1-.986.826l-4.1-1.608-2.443-.71Z" transform="translate(-115.827 1160.177)" fill="#5477ed" stroke="#d2d1cf" stroke-width="0.5"/>
        <path id="Path_14" data-name="Path 14" d="M.444,1.761A1.14,1.14,0,0,1,.1.392c.349-.882,1.625,0,1.625,0L2.44.716,5.1,1.761l3.455.852s1.624.022,1.412.947a.927.927,0,0,1-.986.826l-4.1-1.608L2.44,2.067Z" transform="matrix(0.208, 0.978, -0.978, 0.208, 181.335, 323.122)" fill="#5477ed" stroke="#d2d1cf" stroke-width="0.5"/>
        <path id="Path_15" data-name="Path 15" d="M.444,1.761A1.14,1.14,0,0,1,.1.392c.349-.882,1.625,0,1.625,0L2.44.716,5.1,1.761l3.455.852s1.624.022,1.412.947a.927.927,0,0,1-.986.826l-4.1-1.608L2.44,2.067Z" transform="translate(181.114 337.824) rotate(54)" fill="#5477ed" stroke="#d2d1cf" stroke-width="0.5"/>
        <path id="Path_18" data-name="Path 18" d="M.444,1.761A1.14,1.14,0,0,1,.1.392c.349-.882,1.625,0,1.625,0L2.44.716,5.1,1.761l3.455.852s1.624.022,1.412.947a.927.927,0,0,1-.986.826l-4.1-1.608L2.44,2.067Z" transform="translate(182.171 335.106) rotate(-24)" fill="#5477ed" stroke="#d2d1cf" stroke-width="0.5"/>
      </g>
      <g id="Group_22" data-name="Group 22" transform="translate(-14 4)">
        <path id="Path_23" data-name="Path 23" d="M.444,1.761A1.14,1.14,0,0,1,.1.392c.349-.882,1.625,0,1.625,0L2.44.716,5.1,1.761l3.455.852s1.624.022,1.412.947a.927.927,0,0,1-.986.826l-4.1-1.608L2.44,2.067Z" transform="translate(231.114 324.824) rotate(54)" fill="#5477ed" stroke="#d2d1cf" stroke-width="0.5"/>
        <path id="Path_24" data-name="Path 24" d="M.444,1.761A1.14,1.14,0,0,1,.1.392c.349-.882,1.625,0,1.625,0L2.44.716,5.1,1.761l3.455.852s1.624.022,1.412.947a.927.927,0,0,1-.986.826l-4.1-1.608L2.44,2.067Z" transform="translate(232.171 322.106) rotate(-24)" fill="#5477ed" stroke="#d2d1cf" stroke-width="0.5"/>
        <path id="Path_22" data-name="Path 22" d="M.444,1.761A1.14,1.14,0,0,1,.1.392c.349-.882,1.625,0,1.625,0L2.44.716,5.1,1.761l3.455.852s1.624.022,1.412.947a.927.927,0,0,1-.986.826l-4.1-1.608L2.44,2.067Z" transform="matrix(0.208, 0.978, -0.978, 0.208, 231.335, 310.122)" fill="#5477ed" stroke="#d2d1cf" stroke-width="0.5"/>
        <path id="Path_20" data-name="Path 20" d="M.444,1.761A1.14,1.14,0,0,1,.1.392c.349-.882,1.625,0,1.625,0L2.44.716,5.1,1.761l3.455.852s1.624.022,1.412.947a.927.927,0,0,1-.986.826l-4.1-1.608L2.44,2.067Z" transform="translate(218.043 329.463) rotate(-47)" fill="#5477ed" stroke="#d2d1cf" stroke-width="0.5"/>
        <path id="Path_19" data-name="Path 19" d="M283.294-827.806a1.14,1.14,0,0,1-.346-1.369c.349-.882,1.625,0,1.625,0l.717.324,2.665,1.045,3.455.852s1.624.022,1.412.947a.927.927,0,0,1-.986.826l-4.1-1.608-2.443-.71Z" transform="translate(-65.827 1147.177)" fill="#5477ed" stroke="#d2d1cf" stroke-width="0.5"/>
      </g>
      <g id="Drink" transform="translate(102.82 368.081) rotate(7)">
        <g id="Group_19" data-name="Group 19" transform="translate(0 0)">
          <g id="Group_20" data-name="Group 20" transform="translate(0 0)">
            <path id="Path_3" data-name="Path 3" d="M67.665,86.224l-1.351-4.619-1.14-7.6V67.169l.531-8.633,2.564-12.962,2.784-12.191L80.428,1.277,79.793.654S39.053.056,38.846,0,0,1.277,0,1.277l3.006,9.765L8.175,28.317,10.763,41.2,12.542,53.87l1.155,13.3-.507,8.664-.648,5.772L11.4,86.224v.829l2.976,1.73L22.252,90.4l8.083.669,8.072.54,9.49-.54,11.222-1.208,5.474-1.075,2.279-1.313Z" fill="#d2d1cf"/>
            <path id="Path_4" data-name="Path 4" d="M64.2,81.807l-1.282-4.382-1.082-7.208V63.728l.5-8.19,2.433-12.3,2.642-11.566L76.307,1.212,75.7.621S37.052.053,36.856,0,0,1.212,0,1.212l2.852,9.264,4.9,16.39,2.455,12.221L11.9,51.11l1.1,12.618-.481,8.22L11.9,77.424l-1.081,4.382v.786l2.823,1.641,7.471,1.531,7.669.635,7.658.512,9-.512L56.09,85.254l5.194-1.02,2.162-1.245Z" transform="translate(2.105 2.381)" fill="#d2d1cf"/>
            <path id="Path_9" data-name="Path 9" d="M0,1.272,3.921,13.951H72.477L76.287,1.272,75.755.838,37.028,0Z" transform="translate(2.105 2.279)" fill="#dbdbd9"/>
          </g>
          <g id="Group_21" data-name="Group 21" transform="translate(15.017 65.02)">
            <path id="Path_5" data-name="Path 5" d="M0,1.513S4.535,12.132,24.832,11.818,48.059,1.866,48.059,1.866L48.889,0" transform="translate(0.129 0)" fill="none"/>
            <path id="Path_6" data-name="Path 6" d="M0,1.584S4.561,12.7,24.974,12.373s23.36-10.42,23.36-10.42L49.169,0" transform="translate(0 1.141)" fill="none"/>
          </g>
          <path id="Path_8" data-name="Path 8" d="M51.37,0l-.835,1.953s-2.946,10.091-23.36,10.42S2.2,1.584,2.2,1.584L1.348,12.373.721,15.5,0,18.222v.862L2.685,20.3l7.4,1.644,15.624,1.118,14.476-.95,5.385-.575,5.065-1.073,2.023-1.3.815-.955-1.336-4.521-1-7.215" transform="translate(12.816 66.161)" fill="#dbdbd9"/>
        </g>
        <path id="Path_7" data-name="Path 7" d="M0,0H68.579L63.944,16.046l-1.479,5.846-1.757,8.334-2.3,11.035-.53,7.574s-1.866,11.79-25.388,11.577S8.49,47.695,8.955,46.846,6.045,22.7,6.045,22.7L3.877,12.619Z" transform="translate(6.028 16.343)" fill="#23b751"/>
        <ellipse id="Ellipse_2" data-name="Ellipse 2" cx="1.154" cy="1.154" rx="1.154" ry="1.154" transform="translate(13.05 18.797)" fill="#5dbc7a"/>
        <ellipse id="Ellipse_4" data-name="Ellipse 4" cx="1.154" cy="1.154" rx="1.154" ry="1.154" transform="translate(24.31 56.636)" fill="#dbdbd9"/>
        <ellipse id="Ellipse_5" data-name="Ellipse 5" cx="1.108" cy="1.154" rx="1.108" ry="1.154" transform="translate(42.122 44.638)" fill="rgba(219,219,217,0.9)"/>
        <ellipse id="Ellipse_8" data-name="Ellipse 8" cx="1.154" cy="1.108" rx="1.154" ry="1.108" transform="translate(34 28.764)" fill="#5dbc7a"/>
        <ellipse id="Ellipse_9" data-name="Ellipse 9" cx="1.154" cy="1.154" rx="1.154" ry="1.154" transform="translate(55.504 24.888)" fill="#dbdbd9"/>
        <ellipse id="Ellipse_10" data-name="Ellipse 10" cx="1.108" cy="1.108" rx="1.108" ry="1.108" transform="translate(41.015 65.865)" fill="#5dbc7a"/>
        <ellipse id="Ellipse_12" data-name="Ellipse 12" cx="1.154" cy="1.108" rx="1.154" ry="1.108" transform="translate(51.628 54.421)" fill="#dbdbd9"/>
        <circle id="Ellipse_14" data-name="Ellipse 14" cx="0.6" cy="0.6" r="0.6" transform="translate(21.633 39.009)" fill="#5dbc7a"/>
        <circle id="Ellipse_15" data-name="Ellipse 15" cx="0.6" cy="0.6" r="0.6" transform="translate(23.756 30.979)" fill="#dbdbd9"/>
        <ellipse id="Ellipse_16" data-name="Ellipse 16" cx="0.554" cy="0.6" rx="0.554" ry="0.6" transform="translate(30.586 63.558)" fill="#dbdbd9"/>
        <circle id="Ellipse_17" data-name="Ellipse 17" cx="0.6" cy="0.6" r="0.6" transform="translate(31.139 52.391)" fill="#5dbc7a"/>
        <circle id="Ellipse_18" data-name="Ellipse 18" cx="0.6" cy="0.6" r="0.6" transform="translate(39.63 55.529)" fill="#dbdbd9"/>
        <circle id="Ellipse_19" data-name="Ellipse 19" cx="0.6" cy="0.6" r="0.6" transform="translate(48.121 35.594)" fill="#dbdbd9"/>
        <circle id="Ellipse_20" data-name="Ellipse 20" cx="0.6" cy="0.6" r="0.6" transform="translate(35.2 46.946)" fill="#dbdbd9"/>
        <ellipse id="Ellipse_21" data-name="Ellipse 21" cx="0.6" cy="0.554" rx="0.6" ry="0.554" transform="translate(26.617 42.331)" fill="#dbdbd9"/>
        <ellipse id="Ellipse_22" data-name="Ellipse 22" cx="0.6" cy="0.554" rx="0.6" ry="0.554" transform="translate(10.651 17.874)" fill="#5dbc7a"/>
        <circle id="Ellipse_23" data-name="Ellipse 23" cx="0.6" cy="0.6" r="0.6" transform="translate(64.364 17.228)" fill="#5dbc7a"/>
        <circle id="Ellipse_24" data-name="Ellipse 24" cx="0.6" cy="0.6" r="0.6" transform="translate(25.417 19.996)" fill="#dbdbd9"/>
        <circle id="Ellipse_25" data-name="Ellipse 25" cx="0.6" cy="0.6" r="0.6" transform="translate(22.279 48.791)" fill="#dbdbd9"/>
        <circle id="Ellipse_26" data-name="Ellipse 26" cx="0.6" cy="0.6" r="0.6" transform="translate(57.812 32.179)" fill="#dbdbd9"/>
        <ellipse id="Ellipse_27" data-name="Ellipse 27" cx="0.6" cy="0.554" rx="0.6" ry="0.554" transform="translate(52.182 42.977)" fill="#5dbc7a"/>
        <circle id="Ellipse_28" data-name="Ellipse 28" cx="0.6" cy="0.6" r="0.6" transform="translate(41.568 35.04)" fill="#dbdbd9"/>
        <circle id="Ellipse_29" data-name="Ellipse 29" cx="0.6" cy="0.6" r="0.6" transform="translate(43.23 21.104)" fill="#dbdbd9"/>
        <circle id="Ellipse_30" data-name="Ellipse 30" cx="0.6" cy="0.6" r="0.6" transform="translate(60.211 49.991)" fill="#5dbc7a"/>
        <ellipse id="Ellipse_31" data-name="Ellipse 31" cx="0.6" cy="0.554" rx="0.6" ry="0.554" transform="translate(61.411 42.423)" fill="#dbdbd9"/>
        <circle id="Ellipse_32" data-name="Ellipse 32" cx="0.6" cy="0.6" r="0.6" transform="translate(55.504 70.388)" fill="#dbdbd9"/>
        <circle id="Ellipse_33" data-name="Ellipse 33" cx="0.6" cy="0.6" r="0.6" transform="translate(35.846 71.588)" fill="#dbdbd9"/>
        <circle id="Ellipse_34" data-name="Ellipse 34" cx="0.6" cy="0.6" r="0.6" transform="translate(24.864 68.727)" fill="#dbdbd9"/>
        <circle id="Ellipse_35" data-name="Ellipse 35" cx="0.6" cy="0.6" r="0.6" transform="translate(15.358 28.764)" fill="#dbdbd9"/>
        <circle id="Ellipse_36" data-name="Ellipse 36" cx="0.6" cy="0.6" r="0.6" transform="translate(18.495 58.944)" fill="#5dbc7a"/>
        <circle id="Ellipse_37" data-name="Ellipse 37" cx="0.6" cy="0.6" r="0.6" transform="translate(16.004 48.791)" fill="#dbdbd9"/>
        <circle id="Ellipse_38" data-name="Ellipse 38" cx="0.6" cy="0.6" r="0.6" transform="translate(13.05 39.655)" fill="#dbdbd9"/>
        <circle id="Ellipse_39" data-name="Ellipse 39" cx="0.6" cy="0.6" r="0.6" transform="translate(67.595 24.334)" fill="#dbdbd9"/>
        <circle id="Ellipse_40" data-name="Ellipse 40" cx="0.6" cy="0.6" r="0.6" transform="translate(46.921 28.764)" fill="#dbdbd9"/>
        <circle id="Ellipse_41" data-name="Ellipse 41" cx="0.6" cy="0.6" r="0.6" transform="translate(48.767 69.926)" fill="#5dbc7a"/>
        <circle id="Ellipse_42" data-name="Ellipse 42" cx="0.6" cy="0.6" r="0.6" transform="translate(49.321 61.159)" fill="#5dbc7a"/>
        <circle id="Ellipse_43" data-name="Ellipse 43" cx="0.6" cy="0.6" r="0.6" transform="translate(58.458 62.358)" fill="#dbdbd9"/>
        <ellipse id="Ellipse_44" data-name="Ellipse 44" cx="0.554" cy="0.6" rx="0.554" ry="0.6" transform="translate(30.586 36.794)" fill="#dbdbd9"/>
      </g>
      <g id="Drink-2" data-name="Drink" transform="matrix(0.966, -0.259, 0.259, 0.966, 187.896, 384.791)">
        <g id="Group_19-2" data-name="Group 19" transform="translate(0 0)">
          <g id="Group_20-2" data-name="Group 20">
            <path id="Path_3-2" data-name="Path 3" d="M68.174,86.872l-1.361-4.654-1.149-7.654v-6.89l.535-8.7,2.583-13.059,2.805-12.282L81.032,1.287l-.64-.628S39.346.056,39.138,0,0,1.287,0,1.287l3.029,9.838L8.236,28.53l2.607,12.977,1.792,12.767,1.163,13.4-.51,8.729-.653,5.815-1.148,4.654v.835l3,1.743,7.934,1.626,8.143.674,8.133.544,9.561-.544,11.307-1.217,5.515-1.083,2.3-1.322Z" transform="translate(0 0)" fill="#d2d1cf"/>
            <path id="Path_4-2" data-name="Path 4" d="M64.681,82.421l-1.291-4.415L62.3,70.744V64.207l.507-8.252,2.451-12.39,2.662-11.653L76.881,1.221l-.607-.6S37.33.054,37.133,0,0,1.221,0,1.221l2.873,9.334L7.814,27.068l2.473,12.312,1.7,12.113,1.1,12.713-.484,8.282-.619,5.517L10.9,82.421v.792l2.844,1.653,7.527,1.543L29,87.049l7.716.516,9.072-.516,10.727-1.155,5.233-1.028,2.178-1.255Z" transform="translate(2.121 2.399)" fill="#d2d1cf"/>
            <path id="Path_9-2" data-name="Path 9" d="M0,1.282,3.951,14.056H73.022L76.86,1.282,76.324.844,37.306,0Z" transform="translate(2.121 2.296)" fill="#dbdbd9"/>
          </g>
          <g id="Group_21-2" data-name="Group 21" transform="translate(15.13 65.508)">
            <path id="Path_5-2" data-name="Path 5" d="M0,1.525s4.569,10.7,25.019,10.383S48.42,1.88,48.42,1.88L49.257,0" transform="translate(0.13 0)" fill="none"/>
            <path id="Path_6-2" data-name="Path 6" d="M0,1.6s4.595,11.2,25.161,10.87S48.7,1.968,48.7,1.968L49.538,0" transform="translate(0 1.15)" fill="none"/>
          </g>
          <path id="Path_8-2" data-name="Path 8" d="M51.756,0l-.842,1.968s-2.968,10.167-23.535,10.5S2.217,1.6,2.217,1.6l-.859,10.87L.727,15.613,0,18.359v.869l2.7,1.22L10.159,22.1,25.9,23.23l14.585-.957,5.425-.579,5.1-1.081,2.038-1.305.821-.962L52.527,13.79,51.516,6.521" transform="translate(12.913 66.658)" fill="#dbdbd9"/>
        </g>
        <path id="Path_7-2" data-name="Path 7" d="M0,0H69.094L64.425,16.167l-1.49,5.89-1.771,8.4L58.851,41.571,58.317,49.2S56.436,61.08,32.738,60.865,8.553,48.053,9.022,47.2,6.091,22.866,6.091,22.866L3.907,12.713Z" transform="translate(6.074 16.465)" fill="#edac54"/>
        <ellipse id="Ellipse_2-2" data-name="Ellipse 2" cx="1.154" cy="1.154" rx="1.154" ry="1.154" transform="translate(13.143 18.981)" fill="#dbdbd9"/>
        <ellipse id="Ellipse_4-2" data-name="Ellipse 4" cx="1.154" cy="1.154" rx="1.154" ry="1.154" transform="translate(24.494 57.098)" fill="#f5ba69"/>
        <ellipse id="Ellipse_5-2" data-name="Ellipse 5" cx="1.154" cy="1.154" rx="1.154" ry="1.154" transform="translate(42.399 45.008)" fill="#dbdbd9"/>
        <ellipse id="Ellipse_8-2" data-name="Ellipse 8" cx="1.154" cy="1.154" rx="1.154" ry="1.154" transform="translate(34.277 28.949)" fill="#f5ba69"/>
        <ellipse id="Ellipse_9-2" data-name="Ellipse 9" cx="1.154" cy="1.154" rx="1.154" ry="1.154" transform="translate(55.966 25.073)" fill="#dbdbd9"/>
        <ellipse id="Ellipse_10-2" data-name="Ellipse 10" cx="1.154" cy="1.154" rx="1.154" ry="1.154" transform="translate(41.291 66.327)" fill="#dbdbd9"/>
        <ellipse id="Ellipse_12-2" data-name="Ellipse 12" cx="1.154" cy="1.154" rx="1.154" ry="1.154" transform="translate(51.997 54.79)" fill="#f5ba69"/>
        <ellipse id="Ellipse_14-2" data-name="Ellipse 14" cx="0.6" cy="0.6" rx="0.6" ry="0.6" transform="translate(21.818 39.285)" fill="#f5ba69"/>
        <ellipse id="Ellipse_15-2" data-name="Ellipse 15" cx="0.6" cy="0.6" rx="0.6" ry="0.6" transform="translate(23.941 31.256)" fill="#dbdbd9"/>
        <ellipse id="Ellipse_16-2" data-name="Ellipse 16" cx="0.6" cy="0.6" rx="0.6" ry="0.6" transform="translate(30.77 64.02)" fill="#dbdbd9"/>
        <ellipse id="Ellipse_17-2" data-name="Ellipse 17" cx="0.6" cy="0.6" rx="0.6" ry="0.6" transform="translate(31.416 52.76)" fill="#f5ba69"/>
        <ellipse id="Ellipse_18-2" data-name="Ellipse 18" cx="0.6" cy="0.6" rx="0.6" ry="0.6" transform="translate(39.907 55.99)" fill="#dbdbd9"/>
        <ellipse id="Ellipse_19-2" data-name="Ellipse 19" cx="0.6" cy="0.6" rx="0.6" ry="0.6" transform="translate(48.49 35.871)" fill="#f5ba69"/>
        <ellipse id="Ellipse_20-2" data-name="Ellipse 20" cx="0.6" cy="0.6" rx="0.6" ry="0.6" transform="translate(35.477 47.315)" fill="#dbdbd9"/>
        <ellipse id="Ellipse_21-2" data-name="Ellipse 21" cx="0.6" cy="0.6" rx="0.6" ry="0.6" transform="translate(26.802 42.608)" fill="#dbdbd9"/>
        <ellipse id="Ellipse_22-2" data-name="Ellipse 22" cx="0.6" cy="0.6" rx="0.6" ry="0.6" transform="translate(10.743 17.966)" fill="#f5ba69"/>
        <ellipse id="Ellipse_23-2" data-name="Ellipse 23" cx="0.6" cy="0.6" rx="0.6" ry="0.6" transform="translate(64.826 17.32)" fill="#dbdbd9"/>
        <ellipse id="Ellipse_24-2" data-name="Ellipse 24" cx="0.6" cy="0.6" rx="0.6" ry="0.6" transform="translate(25.602 20.181)" fill="#dbdbd9"/>
        <ellipse id="Ellipse_25-2" data-name="Ellipse 25" cx="0.6" cy="0.6" rx="0.6" ry="0.6" transform="translate(22.464 49.161)" fill="#dbdbd9"/>
        <ellipse id="Ellipse_26-2" data-name="Ellipse 26" cx="0.6" cy="0.6" rx="0.6" ry="0.6" transform="translate(58.273 32.456)" fill="#dbdbd9"/>
        <ellipse id="Ellipse_27-2" data-name="Ellipse 27" cx="0.6" cy="0.6" rx="0.6" ry="0.6" transform="translate(52.551 43.254)" fill="#dbdbd9"/>
        <ellipse id="Ellipse_28-2" data-name="Ellipse 28" cx="0.6" cy="0.6" rx="0.6" ry="0.6" transform="translate(41.845 35.317)" fill="#dbdbd9"/>
        <ellipse id="Ellipse_29-2" data-name="Ellipse 29" cx="0.6" cy="0.6" rx="0.6" ry="0.6" transform="translate(43.599 21.289)" fill="#f5ba69"/>
        <ellipse id="Ellipse_30-2" data-name="Ellipse 30" cx="0.6" cy="0.6" rx="0.6" ry="0.6" transform="translate(60.673 50.36)" fill="#f5ba69"/>
        <ellipse id="Ellipse_31-2" data-name="Ellipse 31" cx="0.6" cy="0.6" rx="0.6" ry="0.6" transform="translate(61.873 42.7)" fill="#dbdbd9"/>
        <ellipse id="Ellipse_32-2" data-name="Ellipse 32" cx="0.6" cy="0.6" rx="0.6" ry="0.6" transform="translate(55.966 70.942)" fill="#f5ba69"/>
        <ellipse id="Ellipse_33-2" data-name="Ellipse 33" cx="0.6" cy="0.6" rx="0.6" ry="0.6" transform="translate(36.123 72.141)" fill="#f5ba69"/>
        <ellipse id="Ellipse_34-2" data-name="Ellipse 34" cx="0.6" cy="0.6" rx="0.6" ry="0.6" transform="translate(25.048 69.28)" fill="#f5ba69"/>
        <ellipse id="Ellipse_35-2" data-name="Ellipse 35" cx="0.6" cy="0.6" rx="0.6" ry="0.6" transform="translate(15.45 28.949)" fill="#dbdbd9"/>
        <ellipse id="Ellipse_36-2" data-name="Ellipse 36" cx="0.6" cy="0.6" rx="0.6" ry="0.6" transform="translate(18.68 59.405)" fill="#dbdbd9"/>
        <ellipse id="Ellipse_37-2" data-name="Ellipse 37" cx="0.6" cy="0.6" rx="0.6" ry="0.6" transform="translate(16.096 49.161)" fill="#f5ba69"/>
        <ellipse id="Ellipse_38-2" data-name="Ellipse 38" cx="0.6" cy="0.6" rx="0.6" ry="0.6" transform="translate(13.143 39.931)" fill="#dbdbd9"/>
        <ellipse id="Ellipse_39-2" data-name="Ellipse 39" cx="0.6" cy="0.6" rx="0.6" ry="0.6" transform="translate(68.148 24.519)" fill="#f5ba69"/>
        <ellipse id="Ellipse_40-2" data-name="Ellipse 40" cx="0.6" cy="0.6" rx="0.6" ry="0.6" transform="translate(47.29 28.949)" fill="#dbdbd9"/>
        <ellipse id="Ellipse_41-2" data-name="Ellipse 41" cx="0.6" cy="0.6" rx="0.6" ry="0.6" transform="translate(49.136 70.48)" fill="#dbdbd9"/>
        <ellipse id="Ellipse_42-2" data-name="Ellipse 42" cx="0.6" cy="0.6" rx="0.6" ry="0.6" transform="translate(49.69 61.62)" fill="#dbdbd9"/>
        <ellipse id="Ellipse_43-2" data-name="Ellipse 43" cx="0.6" cy="0.6" rx="0.6" ry="0.6" transform="translate(58.919 62.82)" fill="#dbdbd9"/>
        <ellipse id="Ellipse_44-2" data-name="Ellipse 44" cx="0.6" cy="0.6" rx="0.6" ry="0.6" transform="translate(30.77 37.07)" fill="#dbdbd9"/>
      </g>
    </g>
  </g>
</svg>
