<svg id="lampada" xmlns="http://www.w3.org/2000/svg" width="19.932" height="24" viewBox="0 0 19.932 24">
  <path id="XMLID_49_" d="M22.134,20.973v.7a1.075,1.075,0,0,1-.816,1.1l-.15.637a.711.711,0,0,1-.662.588H19.022a.711.711,0,0,1-.662-.588l-.145-.637a1.08,1.08,0,0,1-.821-1.106v-.7a.634.634,0,0,1,.585-.677h3.568A.642.642,0,0,1,22.134,20.973Zm2.748-9.452a6.389,6.389,0,0,1-1.436,4.1,5.785,5.785,0,0,0-1.256,2.943.894.894,0,0,1-.838.825H18.176a.885.885,0,0,1-.833-.82,5.846,5.846,0,0,0-1.265-2.953,6.389,6.389,0,0,1-1.427-4.035c-.03-3.289,2.235-5.951,5.081-5.975S24.882,8.242,24.882,11.521Zm-4.539-3.58a.627.627,0,0,0-.577-.667,4.015,4.015,0,0,0-3.692,4.267.583.583,0,1,0,1.154,0,2.761,2.761,0,0,1,2.539-2.933A.624.624,0,0,0,20.343,7.941Zm-.577-4.272A.627.627,0,0,0,20.343,3V.667a.583.583,0,1,0-1.154,0V3A.627.627,0,0,0,19.766,3.669Zm-6.791,7.847a.627.627,0,0,0-.577-.667H10.377a.674.674,0,0,0,0,1.333H12.4A.624.624,0,0,0,12.975,11.516Zm16.18-.667H27.134a.674.674,0,0,0,0,1.333h2.021a.674.674,0,0,0,0-1.333Zm-15,6.217-1.432,1.654a.74.74,0,0,0,0,.943.524.524,0,0,0,.812,0l1.432-1.654a.74.74,0,0,0,0-.943A.518.518,0,0,0,14.151,17.067Zm10.825-10.9a.539.539,0,0,0,.406-.193l1.432-1.654a.74.74,0,0,0,0-.943.522.522,0,0,0-.816,0L24.565,5.027a.74.74,0,0,0,0,.943A.547.547,0,0,0,24.976,6.163Zm-10.825-.2a.524.524,0,0,0,.812,0,.74.74,0,0,0,0-.943L13.531,3.368a.522.522,0,0,0-.816,0,.74.74,0,0,0,0,.943Zm11.231,11.1a.522.522,0,0,0-.816,0,.74.74,0,0,0,0,.943L26,19.664a.524.524,0,0,0,.812,0,.74.74,0,0,0,0-.943Z" transform="translate(-9.8)" fill="#fff500"/>
</svg>
